<svg xmlns="http://www.w3.org/2000/svg" fill="none" viewBox="-0.5 -0.9878 40 40" id="Star--Streamline-Stickies" height="40" width="40">
  <desc>
    Star Streamline Icon: https://streamlinehq.com
  </desc>
  <path fill="#ffe236" stroke="#231f20" stroke-miterlimit="10" d="M36.374634146341464 13.164878048780487c-1.8557341463414634 -0.8773097560975609 -3.814960975609756 -1.5164341463414635 -5.830975609756098 -1.9024390243902438 -1.5156731707317073 -0.2994439024390244 -3.0512268292682925 -0.4870243902439024 -4.594390243902438 -0.5612195121951219 -0.5317317073170732 -1.3505795121951218 -1.1677170731707316 -2.657697804878049 -1.9024390243902438 -3.909502682926829 -0.9762365853658536 -1.8038926829268294 -2.174582926829268 -3.478400487804878 -3.567073170731707 -4.984390243902439 -0.4355634146341463 -0.4086248780487805 -1.0103853658536586 -0.6360519512195122 -1.607560975609756 -0.6360519512195122 -0.5971756097560975 0 -1.1719975609756097 0.2274270731707317 -1.607560975609756 0.6360519512195122 -1.392490243902439 1.5198680487804876 -2.5907414634146337 3.206950975609756 -3.567073170731707 5.022439024390244 -0.7004780487804878 1.267690243902439 -1.3169634146341462 2.5800307317073172 -1.8453658536585364 3.9285270731707316 -1.4588853658536585 0.07904634146341462 -2.9092192682926825 0.27309512195121954 -4.3375609756097555 0.5802439024390244 -2.0158148780487806 0.37535121951219513 -3.9775148780487806 0.9983048780487805 -5.840487804878048 1.8548780487804877 -0.5137726829268293 0.2982073170731707 -0.8967184390243902 0.7786682926829268 -1.0729080731707317 1.3459756097560975 -0.17618963414634145 0.5673073170731707 -0.1327550487804878 1.1801780487804876 0.12169046341463413 1.716951219512195C1.7217739024390244 18.045775609756095 2.939154146341463 19.704036585365852 4.347073170731707 21.193170731707315c1.006009756097561 1.0729756097560974 2.0799270731707313 2.0801268292682926 3.215121951219512 3.0153658536585364 -0.43047439024390244 1.509680487804878 -0.7327624390243902 3.0529390243902434 -0.9036585365853658 4.613414634146341 -0.2544512195121951 2.0308536585365853 -0.2544512195121951 4.085487804878048 0 6.116341463414634 0.11150195121951219 0.5889 0.44294487804878047 1.1132121951219511 0.92703 1.466590243902439 0.48407560975609754 0.35328292682926826 1.0844948780487804 0.5091878048780487 1.6793114634146342 0.43584878048780484 2.0084048780487804 -0.3918073170731707 3.9605926829268294 -1.0308365853658537 5.811951219512195 -1.9024390243902438 1.3108756097560976 -0.624380487804878 2.581609756097561 -1.3296146341463413 3.8048780487804876 -2.111707317073171 1.220890243902439 0.7860878048780487 2.4919097560975607 1.4915121951219512 3.8048780487804876 2.111707317073171 1.8508829268292681 0.8728390243902439 3.8031658536585367 1.5119634146341463 5.811951219512195 1.9024390243902438 0.5947975609756097 0.0733390243902439 1.1952073170731707 -0.08256585365853658 1.6792829268292684 -0.43584878048780484 0.48407560975609754 -0.3533780487804878 0.8155756097560976 -0.877690243902439 0.9270585365853659 -1.466590243902439 0.2544512195121951 -2.0308536585365853 0.2544512195121951 -4.085487804878048 0 -6.116341463414634 -0.15695121951219512 -1.4934146341463415 -0.4304268292682927 -2.972370731707317 -0.8180487804878048 -4.423170731707317 1.244290243902439 -0.9773780487804878 2.399736585365854 -2.0628146341463416 3.4529268292682924 -3.243658536585366 1.4067585365853659 -1.4923682926829267 2.6268878048780486 -3.1500585365853655 3.6336585365853655 -4.936829268292683 0.25235853658536583 -0.5406731707317073 0.2895512195121951 -1.1570634146341463 0.10406341463414634 -1.7240853658536586 -0.18548780487804878 -0.5670219512195122 -0.5797682926829268 -1.0423463414634146 -1.1028439024390244 -1.329329268292683Z" stroke-width="1"></path>
  <path stroke="#ffffff" stroke-linecap="round" stroke-miterlimit="10" d="M20.470243902439023 5.555131463414634C21.38284390243902 6.8316585365853655 22.17273658536585 8.191607560975608 22.829268292682926 9.616829268292681" stroke-width="1"></path>
</svg>